<svg width="323" height="91" viewBox="0 0 323 91" fill="none" xmlns="http://www.w3.org/2000/svg">
<path d="M53.656 89.424C39.4053 90.1067 29.1653 86.5653 22.936 78.8C15.4267 84.6027 9.92267 87.504 6.424 87.504C4.54667 87.504 3.13867 86.5653 2.2 84.688C1.34667 82.896 0.92 80.9333 0.92 78.8C0.92 74.704 2.49867 68.816 5.656 61.136C9.41067 52.432 12.8667 48.08 16.024 48.08C17.6453 48.08 18.8827 50.64 19.736 55.76C21.1867 63.44 22.5093 68.7307 23.704 71.632C26.52 68.6453 30.0187 64.592 34.2 59.472C38.4667 54.352 43.3733 48.1653 48.92 40.912C62.744 22.736 71.9173 12.7947 76.44 11.088C77.976 10.4907 79.512 10.192 81.048 10.192C82.7547 10.192 84.12 10.576 85.144 11.344C86.2533 12.0267 86.808 12.8373 86.808 13.776C86.808 15.2267 85.5707 16.08 83.096 16.336C81.304 17.2747 79.0853 18.896 76.44 21.2C73.88 23.504 71.1493 26.1493 68.248 29.136C65.432 32.0373 62.7867 34.9387 60.312 37.84C57.8373 40.656 55.832 43.088 54.296 45.136C45.1653 57.8507 36.0347 68.0053 26.904 75.6L26.136 76.24C28.8667 80.2507 32.152 83.024 35.992 84.56C39.832 86.096 44.0987 86.864 48.792 86.864C56.5573 86.864 63.9387 85.6693 70.936 83.28C78.0187 80.976 84.376 77.52 90.008 72.912C95.7253 68.2187 100.419 62.5013 104.088 55.76C108.099 48.4213 110.104 41.424 110.104 34.768C110.104 30.2453 109.123 25.9787 107.16 21.968C105.197 17.872 102.552 14.3733 99.224 11.472C95.9813 8.57066 92.3547 6.69333 88.344 5.84C83.6507 4.81599 78.744 4.30399 73.624 4.30399C60.4827 4.30399 48.3653 7.33333 37.272 13.392C25.5813 19.792 19.736 26.96 19.736 34.896C19.736 37.0293 20.376 38.864 21.656 40.4C22.68 41.5947 23.4053 42.2773 23.832 42.448H23.064C20.6747 42.0213 18.6267 40.8267 16.92 38.864C15.2133 36.9013 14.36 34.7253 14.36 32.336C14.36 27.8987 15.7253 23.8453 18.456 20.176C21.272 16.4213 25.3253 13.008 30.616 9.936C41.1973 3.87733 53.6987 0.848 68.12 0.848C71.3627 0.848 74.6053 1.01866 77.848 1.35999C81.0907 1.70133 84.2907 2.21333 87.448 2.896C92.9947 4.09066 98.0293 6.352 102.552 9.68C107.075 13.008 110.701 17.0613 113.432 21.84C116.163 26.6187 117.528 31.7813 117.528 37.328C117.528 43.728 115.651 50.3413 111.896 57.168C108.141 64.08 103.277 69.8827 97.304 74.576C91.416 79.184 84.76 82.6827 77.336 85.072C69.912 87.5467 62.0187 88.9973 53.656 89.424ZM7.064 85.2C10.7333 83.5787 15.1707 80.208 20.376 75.088C17.9013 70.992 16.28 67.536 15.512 64.72C15 62.8427 14.616 59.984 14.36 56.144C8.472 64.592 5.528 71.9733 5.528 78.288C5.528 80.9333 6.04 83.2373 7.064 85.2ZM125.451 82.64C123.403 82.64 121.355 81.9147 119.307 80.464C117.259 79.0133 116.107 77.3067 115.851 75.344C114.998 68.7733 119.136 60.9653 128.267 51.92C137.312 42.8747 145.462 38.352 152.715 38.352C154.678 38.352 156.214 38.8213 157.323 39.76C157.92 40.3573 158.347 41.168 158.603 42.192C158.944 43.216 159.2 43.728 159.371 43.728C159.712 43.728 160.011 43.6853 160.267 43.6C160.523 43.4293 160.822 43.344 161.163 43.344C162.187 43.344 163.083 43.728 163.851 44.496C164.619 45.264 165.046 45.9467 165.131 46.544C165.216 46.7147 162.486 50.9387 156.939 59.216C151.392 67.3227 148.875 72.8267 149.387 75.728C149.814 77.6907 150.752 78.672 152.203 78.672C156.64 78.672 164.747 71.3333 176.523 56.656C176.779 56.3147 177.035 56.144 177.291 56.144C177.718 56.144 177.931 56.4427 177.931 57.04C177.931 57.7227 177.547 58.576 176.779 59.6C165.942 74.192 157.622 81.488 151.819 81.488C151.051 81.488 150.326 81.36 149.643 81.104C145.888 79.6533 144.011 76.8373 144.011 72.656C144.011 71.2053 144.182 69.7547 144.523 68.304L136.587 75.984C134.198 78.3733 132.022 80.08 130.059 81.104C128.182 82.128 126.646 82.64 125.451 82.64ZM124.299 79.824C129.248 79.824 135.99 74.4053 144.523 63.568L158.091 44.88C157.408 43.6853 156.299 43.088 154.763 43.088C149.558 43.088 142.518 47.2693 133.643 55.632C124.427 64.1653 120.288 71.2053 121.227 76.752C121.654 78.8 122.678 79.824 124.299 79.824ZM202.265 82.256C199.961 82.256 198.34 81.616 197.401 80.336C196.462 78.9707 195.993 77.3067 195.993 75.344C195.993 70.3947 197.7 65.104 201.113 59.472L209.305 46.16C203.502 50.4267 197.742 55.76 192.025 62.16C190.489 63.8667 188.74 65.872 186.777 68.176C184.9 70.48 182.809 73.1253 180.505 76.112C177.433 80.1227 175.598 82.128 175.001 82.128C173.806 82.128 172.825 81.616 172.057 80.592C171.289 79.4827 170.905 78.5013 170.905 77.648C170.905 76.9653 171.118 75.728 171.545 73.936C171.972 72.0587 172.484 70.4373 173.081 69.072C173.678 67.6213 174.276 66.2133 174.873 64.848C175.556 63.3973 176.196 61.9893 176.793 60.624L169.113 68.688C168.942 68.8587 168.43 69.3707 167.577 70.224C166.724 71.0773 166.041 71.504 165.529 71.504C165.102 71.504 164.889 71.2053 164.889 70.608C164.889 70.4373 164.974 70.224 165.145 69.968C165.23 69.6267 165.486 69.2427 165.913 68.816C167.193 67.536 168.516 66.1707 169.881 64.72C171.246 63.2693 172.654 61.6053 174.105 59.728C174.873 58.7893 176.025 57.3813 177.561 55.504C179.097 53.5413 180.761 51.4507 182.553 49.232C184.43 47.0133 186.18 44.9653 187.801 43.088C188.228 42.4907 188.697 42.1067 189.209 41.936C189.721 41.68 190.062 41.552 190.233 41.552C192.537 41.552 193.689 42.448 193.689 44.24C193.689 44.752 193.561 45.264 193.305 45.776C185.625 56.3573 181.017 64.4213 179.481 69.968C189.38 60.0693 197.316 52.6453 203.289 47.696C209.348 42.6613 213.657 40.144 216.217 40.144C217.582 40.144 218.606 40.3573 219.289 40.784C220.057 41.2107 220.441 42.0213 220.441 43.216C220.441 43.6427 220.398 43.984 220.313 44.24C220.057 44.8373 218.308 47.2267 215.065 51.408C213.102 53.7973 211.353 55.9733 209.817 57.936C208.366 59.8987 207.172 61.6053 206.233 63.056C204.697 65.4453 203.545 67.7067 202.777 69.84C202.009 71.888 201.625 73.6373 201.625 75.088C201.625 75.6853 201.71 76.4107 201.881 77.264C202.052 78.1173 202.564 78.544 203.417 78.544C205.38 78.544 208.452 76.8373 212.633 73.424C214.596 71.7173 216.43 70.0107 218.137 68.304C219.844 66.512 221.465 64.7627 223.001 63.056C223.342 62.7147 223.897 62.0747 224.665 61.136C225.433 60.112 225.902 59.6 226.073 59.6C226.414 59.6 226.585 59.9413 226.585 60.624C226.585 60.9653 226.372 61.5627 225.945 62.416C225.604 63.184 225.22 63.7813 224.793 64.208C223.854 65.3173 222.446 66.8533 220.569 68.816C218.777 70.7787 216.729 72.784 214.425 74.832C212.206 76.88 210.03 78.6293 207.897 80.08C205.764 81.5307 203.886 82.256 202.265 82.256ZM249.538 37.968C248.087 37.968 246.807 37.4987 245.698 36.56C244.674 35.6213 244.162 34.5547 244.162 33.36C244.162 30.9707 245.783 29.776 249.026 29.776C250.221 29.776 251.415 30.2027 252.61 31.056C253.805 31.824 254.402 32.8053 254.402 34C254.402 35.024 253.847 35.9627 252.738 36.816C251.629 37.584 250.562 37.968 249.538 37.968ZM225.858 83.408C223.981 83.408 222.445 82.8107 221.25 81.616C219.97 80.336 219.33 78.1173 219.33 74.96C219.33 73.168 219.757 71.12 220.61 68.816C221.378 66.4267 222.359 64.0373 223.554 61.648C224.834 59.2587 226.071 57.1253 227.266 55.248C232.045 47.4827 235.97 43.5573 239.042 43.472C239.81 43.472 240.749 43.8133 241.858 44.496C242.967 45.0933 243.522 45.776 243.522 46.544C243.522 46.544 240.279 50.7253 233.794 59.088C227.394 67.3653 224.194 73.2533 224.194 76.752C224.194 79.4827 225.261 80.848 227.394 80.848C228.759 80.848 230.509 80.2933 232.642 79.184C234.861 77.9893 237.165 76.496 239.554 74.704C241.943 72.912 244.205 70.992 246.338 68.944C248.557 66.896 250.349 65.0187 251.714 63.312C252.567 62.2027 253.293 61.4347 253.89 61.008C254.573 60.5813 254.999 60.368 255.17 60.368C255.511 60.368 255.682 60.624 255.682 61.136C255.682 61.5627 255.17 62.416 254.146 63.696C253.207 64.976 251.885 66.4693 250.178 68.176C248.13 70.224 245.869 72.4427 243.394 74.832C240.919 77.2213 238.231 79.2693 235.33 80.976C232.429 82.5973 229.271 83.408 225.858 83.408ZM256.653 83.664C253.922 83.664 251.448 82.8107 249.229 81.104C247.01 79.312 245.901 76.9653 245.901 74.064C245.901 68.0053 249.613 61.0933 257.037 53.328C264.632 45.4773 271.416 41.552 277.389 41.552C279.352 41.552 280.93 42.1067 282.125 43.216C283.405 44.24 284.045 45.52 284.045 47.056C284.045 51.8347 280.248 56.528 272.653 61.136C265.912 65.232 260.237 67.28 255.629 67.28C254.946 67.28 254.349 67.1947 253.837 67.024C252.557 69.328 251.917 71.76 251.917 74.32C251.917 78.7573 254.008 80.976 258.189 80.976C262.456 80.976 267.96 78.1173 274.701 72.4C279.906 68.2187 284.344 63.7813 288.013 59.088C288.781 58.064 289.464 57.552 290.061 57.552C290.573 57.552 290.829 57.808 290.829 58.32C290.829 58.832 290.488 59.5573 289.805 60.496C287.416 63.6533 284.856 66.5547 282.125 69.2C279.394 71.8453 276.45 74.2773 273.293 76.496C266.722 81.2747 261.176 83.664 256.653 83.664ZM257.421 64.464C260.664 64.464 264.888 62.8427 270.093 59.6C271.8 58.4053 273.464 57.0827 275.085 55.632C276.792 54.096 278.157 52.56 279.181 51.024C280.29 49.488 280.845 48.1227 280.845 46.928C280.845 45.8187 279.949 45.264 278.157 45.264C275.597 45.264 272.013 47.184 267.405 51.024C265.186 52.9013 263.053 54.9493 261.005 57.168C258.957 59.3867 257.208 61.7333 255.757 64.208C256.269 64.3787 256.824 64.464 257.421 64.464ZM292.728 82.256C290.253 82.256 287.949 81.6587 285.816 80.464C283.683 79.184 282.616 77.0933 282.616 74.192C282.616 70.1813 284.024 65.4027 286.84 59.856C289.741 54.3093 293.027 48.5493 296.696 42.576C306.68 26.3627 313.763 18.256 317.944 18.256C318.797 18.256 319.651 18.5973 320.504 19.28C321.443 19.8773 321.955 20.56 322.04 21.328L313.08 33.36C309.581 38.0533 306.424 42.4053 303.608 46.416C300.792 50.3413 298.36 53.8827 296.312 57.04C295.288 58.6613 294.136 60.496 292.856 62.544C291.576 64.592 290.424 66.7253 289.4 68.944C288.461 71.0773 287.992 73.2533 287.992 75.472C287.992 76.496 288.291 77.4347 288.888 78.288C289.485 79.056 290.552 79.44 292.088 79.44C294.819 79.44 298.403 77.9893 302.84 75.088C307.277 72.1013 311.672 68.0053 316.024 62.8C316.451 62.288 316.92 61.8187 317.432 61.392C317.944 60.9653 318.371 60.752 318.712 60.752C319.139 60.752 319.352 61.008 319.352 61.52C319.352 61.776 319.053 62.288 318.456 63.056C317.944 63.7387 317.517 64.2933 317.176 64.72L314.104 68.176C312.397 70.0533 310.349 72.1013 307.96 74.32C305.656 76.5387 303.181 78.416 300.536 79.952C297.976 81.488 295.373 82.256 292.728 82.256Z" fill="black"/>
</svg>
