<svg width="383" height="127" viewBox="0 0 383 127" fill="none" xmlns="http://www.w3.org/2000/svg">
<path d="M25.3 126.65L23.35 126.2V125.45C23.35 125.25 23.25 125 23.05 124.7C22.85 124.4 22.75 124.2 22.75 124.1C22.75 123.7 22.9 123 23.2 122C23.5 121.1 23.6 120.3 23.5 119.6L23.8 119.3C24.3 118.8 24.45 118.2 24.25 117.5L24.7 116C24.6 116 24.55 115.85 24.55 115.55V115.4C25.05 115.2 25.3 115 25.3 114.8C25.3 114.4 25.05 113.85 24.55 113.15C24.15 112.45 23.75 112.15 23.35 112.25C23.05 111.75 22.85 111.25 22.75 110.75C22.75 110.25 22.35 109.65 21.55 108.95C21.65 108.85 21.7 108.7 21.7 108.5C21.7 107.9 21.25 107.3 20.35 106.7C19.75 104.6 18.9 103.3 17.8 102.8L13.75 98.6C13.65 98.6 13.5 98.65 13.3 98.75C13.2 98.85 13.1 98.9 13 98.9C12.6 98.9 11.85 98.6 10.75 98C9.65 97.5 8.75 97.25 8.05 97.25C7.85 97.25 7.8 97.3 7.9 97.4C7.9 97.5 7.9 97.55 7.9 97.55C7.9 97.55 7.9 97.5 7.9 97.4C7.7 97.2 7.5 97.1 7.3 97.1C7.2 97.1 7.1 97.15 7 97.25V97.1C7 96.7 6.6 96.35 5.8 96.05C5.1 95.75 4.75 95.95 4.75 96.65L4.9 96.8L5.05 96.65C4.95 97.05 4.7 97.25 4.3 97.25C4.1 97.25 3.75 97.2 3.25 97.1C2.85 97 2.55 96.95 2.35 96.95C1.55 95.35 1 94.5 0.7 94.4V93.35C1.2 92.55 1.45 91.35 1.45 89.75C1.45 89.15 2.25 88.5 3.85 87.8C6.95 88.8 10.75 90 15.25 91.4C19.85 92.7 25.2 94.15 31.3 95.75C31.7 95.85 31.9 95.6 31.9 95C32 94.3 32.25 93.8 32.65 93.5C32.75 92.8 33.25 91.8 34.15 90.5V90.2C34.55 89.4 34.9 88.5 35.2 87.5C35.5 86.5 36.4 85 37.9 83L38.5 80.6C38.9 80.1 39.15 79.75 39.25 79.55C39.35 79.25 39.55 79 39.85 78.8V78.5C39.85 78.2 39.9 78 40 77.9L40.3 78.05V77C40.9 75.7 41.55 74.4 42.25 73.1C43.05 71.7 43.85 70.25 44.65 68.75C45.45 67.05 47.2 64.05 49.9 59.75C52.6 55.45 56.15 49.95 60.55 43.25C62.65 40.05 64.75 36.85 66.85 33.65C68.95 30.35 71.1 27.1 73.3 23.9C74.8 23.9 75.55 23.2 75.55 21.8C75.55 21.5 75.35 21.3 74.95 21.2C71.45 20.4 67.3 19.95 62.5 19.85L50.2 19.4C49.3 18 48.75 17.3 48.55 17.3C48.35 17.3 48.05 17.95 47.65 19.25C35.25 20.25 25.95 21.9 19.75 24.2C17.75 25 15.75 26.15 13.75 27.65C11.15 29.65 9.85 31.35 9.85 32.75C9.85 32.95 9.9 33.2 10 33.5C10.2 33.7 10.3 33.85 10.3 33.95C10.3 34.15 10.25 34.3 10.15 34.4C10.35 34.8 10.6 35.3 10.9 35.9C11.3 36.4 11.7 36.9 12.1 37.4L14.05 37.85C18.05 39.85 21.45 40.85 24.25 40.85C24.45 40.85 24.65 40.8 24.85 40.7C25.15 40.6 25.4 40.55 25.6 40.55C27.1 40.55 27.85 41 27.85 41.9C27.85 42.5 27.15 42.9 25.75 43.1C25.65 42.7 25.35 42.2 24.85 41.6L24.1 42.5C24 42.4 23.9 42.35 23.8 42.35C23.7 42.35 23.6 42.4 23.5 42.5C23.4 42.5 23.25 42.55 23.05 42.65L22.15 41.75C21.75 42.35 20.9 42.65 19.6 42.65C19.4 42.65 19.25 42.6 19.15 42.5C19.05 42.3 18.95 42.2 18.85 42.2H18.7L18.55 42.35C18.35 42.35 18.25 42.3 18.25 42.2C18.35 42 18.3 41.9 18.1 41.9C18 41.9 17.9 41.95 17.8 42.05C17.8 42.15 17.75 42.2 17.65 42.2C17.25 42.2 16.9 42 16.6 41.6L16.15 42.2C15.45 41.8 15.1 41.55 15.1 41.45C14.8 41.55 14.35 41.6 13.75 41.6C13.65 41.6 13.45 41.5 13.15 41.3C12.95 41.1 12.8 41 12.7 41C10.2 40.2 8.45 39.25 7.45 38.15C6.95 37.85 6.45 37.55 5.95 37.25C5.45 36.85 5.2 36.3 5.2 35.6C5.2 35.5 5.1 35.45 4.9 35.45C4.5 34.65 4.3 34.1 4.3 33.8C4.3 31.4 4.9 29.45 6.1 27.95V27.05L7.3 25.85L7.75 26.3C7.85 26.2 7.85 26 7.75 25.7C7.75 25.5 7.8 25.4 7.9 25.4H8.2C8.2 25.5 8.25 25.55 8.35 25.55C8.45 25.55 8.6 25.35 8.8 24.95C9 24.55 9.2 24.35 9.4 24.35C9.7 24.25 10.2 24.15 10.9 24.05C11.7 23.95 11.95 23.55 11.65 22.85C11.85 23.05 12 23.1 12.1 23C12.9 22.5 13.4 22.25 13.6 22.25C13.8 22.25 13.95 22.3 14.05 22.4H14.35C14.55 22.4 15.05 22.05 15.85 21.35C16.65 20.65 17.1 20.2 17.2 20H18.1L18.55 20.3C18.65 20.3 18.95 20.15 19.45 19.85C19.95 19.45 20.25 19.25 20.35 19.25C20.45 19.25 20.6 19.35 20.8 19.55C21.1 19.65 21.35 19.7 21.55 19.7C22.65 19.7 23.5 19.4 24.1 18.8C24.7 18.2 25.2 17.9 25.6 17.9C25.9 17.9 26.25 18.2 26.65 18.8L29.65 17.45C29.85 17.45 29.85 17.55 29.65 17.75C29.65 17.85 29.7 17.9 29.8 17.9C31 17.6 31.45 17.45 31.15 17.45C31.35 17.45 31.6 17.55 31.9 17.75C32.3 17.85 32.6 17.9 32.8 17.9C32.6 17.9 32.9 17.75 33.7 17.45C33.9 17.35 34.1 17.25 34.3 17.15C34.5 17.05 34.8 16.95 35.2 16.85C35.4 16.85 35.6 16.95 35.8 17.15C36 17.35 36.15 17.45 36.25 17.45C36.45 17.45 36.85 17.3 37.45 17C38.15 16.7 38.6 16.55 38.8 16.55H39.7C40 16.65 40.3 16.7 40.6 16.7C40.8 16.7 41.1 16.6 41.5 16.4C41.9 16.2 42.2 16.1 42.4 16.1C42.6 16.1 42.75 16.15 42.85 16.25H43.45C43.95 16.25 44.6 16.15 45.4 15.95C46.2 15.75 46.8 15.65 47.2 15.65H48.55C49.05 15.65 49.55 15.85 50.05 16.25L50.5 15.95V16.1C50.5 16.2 50.6 16.25 50.8 16.25C50.9 16.25 51.05 16.15 51.25 15.95C51.45 15.75 51.6 15.65 51.7 15.65C51.9 15.65 52.1 15.7 52.3 15.8C52.5 15.9 52.7 15.95 52.9 15.95C53.1 15.95 53.45 15.85 53.95 15.65C54.45 15.35 54.8 15.2 55 15.2C55.2 15.2 55.45 15.35 55.75 15.65C56.05 15.85 56.3 15.95 56.5 15.95C56.6 15.95 56.8 15.9 57.1 15.8C57.5 15.7 57.8 15.65 58 15.65L58.6 16.1C58.8 15.8 59.1 15.65 59.5 15.65H62.65C63.35 15.65 63.95 15.7 64.45 15.8C64.95 15.8 65.4 15.8 65.8 15.8C65.9 15.8 66 15.75 66.1 15.65H66.55C67.05 15.65 67.65 15.7 68.35 15.8C69.05 15.9 69.9 16.05 70.9 16.25C71.9 16.45 72.7 16.6 73.3 16.7C73.9 16.8 74.3 16.85 74.5 16.85C74.9 16.85 75.55 16.9 76.45 17C77.35 17.1 78 17.15 78.4 17.15H79C79.2 17.05 79.45 17 79.75 17C80.05 17 80.4 17.15 80.8 17.45C81.3 16.65 83.6 14.5 87.7 11C91.8 7.39999 93.9 5.59999 94 5.59999C94.1 5.59999 95 4.74999 96.7 3.05C96.8 3.05 96.85 3.1 96.85 3.2C96.95 3.29999 97.05 3.34999 97.15 3.34999C97.25 3.34999 97.3 3.24999 97.3 3.05C97.4 2.84999 97.55 2.74999 97.75 2.74999C97.85 2.74999 97.95 2.79999 98.05 2.9H98.35C98.55 2.9 98.85 2.75 99.25 2.45C99.65 2.14999 99.9 1.99999 100 1.99999C100.2 1.99999 100.3 2.09999 100.3 2.3C100.4 2.4 100.5 2.4 100.6 2.3C102.9 1.4 104 0.949998 103.9 0.949998C104.3 0.949998 104.6 1.05 104.8 1.24999H105.25C105.45 1.24999 105.65 1.24999 105.85 1.24999C106.05 1.24999 106.3 1.19999 106.6 1.1C107.2 1.69999 107.65 1.99999 107.95 1.99999C108.05 1.99999 108.25 1.94999 108.55 1.85C108.85 1.75 109.05 1.7 109.15 1.7H109.3H109.15C109.15 1.89999 109.5 2.14999 110.2 2.45C110.4 2.45 110.7 2.25 111.1 1.85C111.1 2.25 111.25 2.7 111.55 3.2C111.65 3.1 111.7 2.9 111.7 2.59999C112.3 3 112.8 3.49999 113.2 4.09999C113.4 4.59999 113.95 5.19999 114.85 5.9V6.04999C114.85 6.45 115.1 6.9 115.6 7.4C115.6 7.89999 115.75 8.64999 116.05 9.64999C116.45 10.65 116.65 11.4 116.65 11.9C116.65 12.7 116.25 13.1 115.45 13.1C115.15 13.1 115.05 12.75 115.15 12.05C114.95 11.85 114.7 11.75 114.4 11.75C113.7 10.85 113.4 10.1 113.5 9.49999C112.7 9 112.3 8.75 112.3 8.75C112.1 8.75 111.95 8.8 111.85 8.89999C111.75 8.8 111.7 8.55 111.7 8.14999H110.35C110.15 8.14999 109.95 8.1 109.75 8C109.65 7.79999 109.55 7.69999 109.45 7.69999C109.25 7.69999 108.95 7.74999 108.55 7.85C108.15 7.85 107.7 7.9 107.2 8C106.1 8.8 105.3 9.2 104.8 9.2C104.8 9.2 104.75 9.35 104.65 9.64999C104.55 9.85 104.4 9.95 104.2 9.95C104 9.95 103.75 9.85 103.45 9.64999C103.25 9.45 103.05 9.35 102.85 9.35C102.15 9.35 101.7 9.8 101.5 10.7L101.2 10.4C98.7 13.7 96.45 15.35 94.45 15.35C94.25 15.35 94.15 15.3 94.15 15.2C94.25 15.1 94.2 15.05 94 15.05C93.8 15.05 93.3 15.65 92.5 16.85L91.3 18.8C91.7 19.2 92.25 19.4 92.95 19.4C93.25 19.4 93.5 19.35 93.7 19.25H94.45C94.55 19.25 94.7 19.3 94.9 19.4C95.1 19.5 95.25 19.55 95.35 19.55C95.85 19.55 96.4 19.7 97 20C97.7 20.3 98.2 20.45 98.5 20.45C98.9 20.45 99.4 20.3 100 20C100 20 100.4 20.2 101.2 20.6C102 21 102.65 21.2 103.15 21.2C103.65 21.2 104.05 21.15 104.35 21.05H105.4C105.6 21.05 106.2 21.35 107.2 21.95C108.3 22.55 109.1 22.85 109.6 22.85C109.7 22.85 109.8 22.8 109.9 22.7H110.2C110.3 22.7 110.9 22.95 112 23.45C113.1 23.85 113.75 24.05 113.95 24.05H114.25C114.35 23.95 114.5 23.9 114.7 23.9C115.4 23.9 116.5 24.2 118 24.8C119.5 25.4 121.35 26.25 123.55 27.35L130.45 30.65C130.85 30.65 130.95 30.5 130.75 30.2C131.55 30.6 132.5 31.2 133.6 32C134.7 32.8 135.9 33.75 137.2 34.85C137.4 35.15 137.95 35.6 138.85 36.2C139.85 36.8 140.5 37.1 140.8 37.1V37.25C140.8 37.95 141.4 38.45 142.6 38.75L142.75 39.35L145.3 41.15C145.3 41.25 145.3 41.4 145.3 41.6C145.3 41.8 145.35 42 145.45 42.2C146.55 42.8 147.3 43.6 147.7 44.6C148.1 45.5 148.35 46 148.45 46.1V46.4C148.55 46.5 148.7 46.55 148.9 46.55C149.2 46.55 149.55 46.6 149.95 46.7C150.15 47.2 150.35 47.7 150.55 48.2C150.85 48.6 151.25 48.75 151.75 48.65V48.95C151.75 49.65 152.3 50.95 153.4 52.85V53.9C153.3 54.1 153.25 54.35 153.25 54.65C153.25 55.25 153.5 56.2 154 57.5C154.6 58.8 154.9 59.75 154.9 60.35C154.9 60.55 154.85 60.75 154.75 60.95C154.65 61.05 154.55 61.15 154.45 61.25C154.55 61.35 154.6 62.1 154.6 63.5C154.6 64 154.45 64.5 154.15 65C154.15 65.3 154.15 65.7 154.15 66.2C154.15 66.6 154.2 67.05 154.3 67.55C154.1 67.65 153.7 68 153.1 68.6C153.2 69.1 153.25 69.5 153.25 69.8C153.25 70.1 153.25 70.25 153.25 70.25C153.25 70.65 153.2 70.95 153.1 71.15C152.8 71.25 152.5 71.35 152.2 71.45C151.9 71.55 151.55 71.7 151.15 71.9C151.15 71.9 151.35 72 151.75 72.2C152.15 72.4 152.35 72.55 152.35 72.65C151.85 73.25 151.55 73.65 151.45 73.85C151.55 74.25 151.6 74.55 151.6 74.75C151 75.75 150.7 76.65 150.7 77.45C149.8 77.75 149 78.55 148.3 79.85C147.9 79.85 147.7 79.9 147.7 80L147.85 80.3C147.45 80.6 147.15 80.85 146.95 81.05C146.85 81.25 146.3 81.65 145.3 82.25C144.4 82.65 143.95 83 143.95 83.3C143.15 85.2 141.95 86.5 140.35 87.2C140.25 87.2 140.25 87.55 140.35 88.25C140.25 88.35 139.9 88.4 139.3 88.4C136.1 90.7 134.05 91.85 133.15 91.85C133.05 91.85 132.95 91.8 132.85 91.7C132.85 91.6 132.8 91.55 132.7 91.55C132.6 91.55 132.05 92 131.05 92.9C130.15 93.7 129.65 94.1 129.55 94.1H129.25C129.25 94 129.2 93.95 129.1 93.95C128.9 93.95 128.45 94.1 127.75 94.4C127.05 94.7 126.6 94.9 126.4 95C126.3 95 126.1 95.15 125.8 95.45C125.6 95.65 125.4 95.75 125.2 95.75C125.1 95.75 125.05 95.7 125.05 95.6H124.9C124.8 95.6 124.75 95.65 124.75 95.75C124.75 95.85 124.5 96 124 96.2L120.7 97.55C119.5 98.05 118.45 98.9 117.55 100.1C117.35 99.9 117.15 99.8 116.95 99.8C116.85 99.8 116.7 99.85 116.5 99.95C116.3 100.15 116.15 100.25 116.05 100.25C115.95 100.25 115.9 100.2 115.9 100.1H115.75C115.45 100.1 115 100.25 114.4 100.55C113.9 100.85 113.55 101 113.35 101C113.15 101 113 100.95 112.9 100.85H112.3L112.15 101.15C111.85 101.85 111.35 102.2 110.65 102.2L109.45 101.9C109.35 101.9 109.25 102 109.15 102.2C109.15 102.4 109.1 102.5 109 102.5C108.8 102.5 108.55 102.4 108.25 102.2C107.95 102 107.8 101.9 107.8 101.9C107.5 101.9 107.25 102 107.05 102.2C106.85 102.5 106.7 102.65 106.6 102.65C106.5 102.65 106.35 102.55 106.15 102.35C106.05 102.15 105.9 102.05 105.7 102.05C105.3 102.05 104.95 102.35 104.65 102.95C103.45 103.45 101.65 104 99.25 104.6C96.95 105.2 94.05 105.8 90.55 106.4H86.95C86.55 106.4 85.95 106.5 85.15 106.7C84.45 106.9 83.9 107 83.5 107C83.3 107 83.3 106.9 83.5 106.7H83.35C83.05 106.7 82.8 106.8 82.6 107H82.3C82 107 81.45 106.95 80.65 106.85C79.95 106.75 79.4 106.7 79 106.7C78.9 106.7 78.8 106.75 78.7 106.85C78.6 107.05 78.5 107.15 78.4 107.15H76.75C76.35 107.05 76.05 107 75.85 107C75.65 107 75.45 107 75.25 107C74.85 107 74.3 107 73.6 107C72.9 107 72 107.05 70.9 107.15C69.9 107.25 69.05 107.3 68.35 107.3C67.65 107.3 67.15 107.3 66.85 107.3C66.65 107.3 66.45 107.2 66.25 107C66.05 106.9 65.9 106.85 65.8 106.85C64.7 106.85 63 106.8 60.7 106.7C58.5 106.6 56.85 106.55 55.75 106.55C55.65 106.55 55.5 106.6 55.3 106.7C55.1 106.9 54.95 107 54.85 107C54.75 107 54.6 106.9 54.4 106.7C54.2 106.6 54.05 106.55 53.95 106.55C53.85 106.55 53.7 106.6 53.5 106.7C53.3 106.8 53.15 106.85 53.05 106.85V106.4H52.9C52.6 106.4 52.35 106.45 52.15 106.55H51.4C50.7 106.55 47.65 106.1 42.25 105.2L41.95 104.75C41.85 105.05 41.65 105.2 41.35 105.2C41.25 105.2 41.1 105.1 40.9 104.9C40.7 104.8 40.55 104.75 40.45 104.75H40.15C40.15 104.75 39.95 104.85 39.55 105.05L39.1 104.6L38.65 104.75V104.15C38.85 104.15 39.25 104.05 39.85 103.85C40.45 103.65 40.85 103.55 41.05 103.55C41.15 103.55 41.3 103.65 41.5 103.85C41.7 104.05 41.9 104.15 42.1 104.15C42.2 104.15 42.25 104.1 42.25 104C42.35 103.9 42.45 103.85 42.55 103.85C42.55 103.85 42.8 104.25 43.3 105.05L45.4 103.85C45.6 103.85 45.85 103.95 46.15 104.15C46.55 104.35 46.85 104.45 47.05 104.45L48.85 104.3C51.35 104.5 54.1 104.7 57.1 104.9C60.1 105.1 63.35 105.15 66.85 105.05L76.6 104.75C76.8 105.05 77.05 105.2 77.35 105.2C77.45 105.2 77.5 105.1 77.5 104.9C77.6 104.8 77.75 104.75 77.95 104.75C78.05 104.75 78.15 104.8 78.25 104.9C78.45 105.1 78.65 105.2 78.85 105.2C79.25 105.2 79.85 105 80.65 104.6C81.45 104.3 82.05 104.15 82.45 104.15C82.55 104.15 82.75 104.2 83.05 104.3C83.45 104.4 83.75 104.45 83.95 104.45C84.55 104.45 84.9 104.5 85 104.6C85.2 104.4 85.35 104.15 85.45 103.85C85.75 104.25 86.25 104.45 86.95 104.45C87.55 104.45 88.45 104.25 89.65 103.85C90.85 103.45 91.75 103.25 92.35 103.25C94.85 103.25 98.2 102.45 102.4 100.85C106.6 99.25 109.4 98.45 110.8 98.45C111.8 97.65 112.4 97.25 112.6 97.25C112.7 97.25 112.75 97.3 112.75 97.4H112.9C113 97.4 113.15 97.25 113.35 96.95C113.55 96.65 113.75 96.5 113.95 96.5C114.15 96.5 114.4 96.6 114.7 96.8C115 97 115.2 97.1 115.3 97.1C115.5 97.1 115.9 96.75 116.5 96.05C117.1 95.25 117.5 94.85 117.7 94.85C117.7 94.85 117.75 95 117.85 95.3C119.45 94.3 120.6 93.8 121.3 93.8C121.4 93.8 121.55 93.9 121.75 94.1L124.75 92.6C127.25 91 128.4 90.2 128.2 90.2H128.5C128.6 90.3 128.7 90.35 128.8 90.35C128.6 90.35 129.2 89.85 130.6 88.85C132 87.85 133.6 86.5 135.4 84.8C136.5 84.4 137.9 82.95 139.6 80.45C139.9 80.15 141 78.1 142.9 74.3C144.9 70.3 145.9 66.55 145.9 63.05C145.9 51.55 135.2 40.5 113.8 29.9L111.85 29.45C110.45 29.15 109.45 28.85 108.85 28.55C108.25 28.25 108 28.1 108.1 28.1L107.5 28.25C106.2 27.05 105.2 26.45 104.5 26.45C104.3 26.45 104.05 26.6 103.75 26.9C103.65 26.5 103.35 26.3 102.85 26.3H102.25C102.05 26.4 101.85 26.45 101.65 26.45C100.85 26.45 99.75 26.05 98.35 25.25C97.05 24.35 96.05 23.9 95.35 23.9C94.75 23.9 94.25 23.95 93.85 24.05H92.35C92.25 24.05 92.05 23.85 91.75 23.45C91.45 23.05 91.2 22.85 91 22.85C90.9 22.85 90.8 22.9 90.7 23C90.7 23.1 90.65 23.15 90.55 23.15C90.45 23.15 90.35 23.1 90.25 23C90.25 22.9 90.2 22.85 90.1 22.85C90 22.85 89.9 22.95 89.8 23.15C89.8 23.25 89.7 23.3 89.5 23.3C89.1 23.3 88.6 23.3 88 23.3C87.4 23.2 86.7 23.1 85.9 23L85 23.9C85 23.9 84.7 23.8 84.1 23.6C84 23.7 83.9 23.95 83.8 24.35C83.7 24.65 83.6 25.05 83.5 25.55C83.4 26.15 83.2 26.45 82.9 26.45C82.7 26.45 82.35 26.3 81.85 26C76.45 31.2 69.45 40.05 60.85 52.55C56.85 58.15 53.8 62.7 51.7 66.2C49.6 69.6 48.35 71.85 47.95 72.95V73.25C47.95 73.75 47.6 74.55 46.9 75.65C46.9 75.95 46.7 76.2 46.3 76.4C45.9 76.6 45.6 76.8 45.4 77L43.15 81.8C43.15 81.9 43.1 82.1 43 82.4C43 82.6 42.95 82.85 42.85 83.15L40.3 87.05L38.5 91.55C38.4 91.75 38.15 92.1 37.75 92.6C37.45 93 37.05 93.55 36.55 94.25V94.55C36.55 94.95 36.4 95.45 36.1 96.05L36.4 96.2C36.4 96.6 36.2 96.85 35.8 96.95C36.2 97.05 40.6 97.65 49 98.75C51.8 99.15 54.1 99.4 55.9 99.5C57.7 99.7 58.95 99.8 59.65 99.8H61.15V100.4C60.45 101.3 59.55 101.75 58.45 101.75C58.35 101.75 58.25 101.7 58.15 101.6H57.85C57.75 101.6 57.7 101.75 57.7 102.05C57.4 102.15 56.85 102.2 56.05 102.2C56.55 102.2 56.45 102.15 55.75 102.05C55.05 101.95 53.75 101.8 51.85 101.6C51.35 101.6 50.65 101.55 49.75 101.45C48.95 101.45 48 101.4 46.9 101.3C46.7 101.3 46.5 101.2 46.3 101C46.1 100.9 45.75 100.85 45.25 100.85H43.6C43.2 100.65 42.6 100.65 41.8 100.85C41.7 100.85 41.55 100.75 41.35 100.55C41.25 100.45 41.15 100.4 41.05 100.4C40.85 100.4 40.55 100.45 40.15 100.55C39.75 100.65 39.45 100.7 39.25 100.7C39.05 100.7 38.9 100.5 38.8 100.1C38.6 100.3 38.35 100.4 38.05 100.4L37.75 100.1C37.55 100.2 37.05 100.25 36.25 100.25C36.25 100.25 36.05 100.15 35.65 99.95C35.25 99.75 34.8 99.7 34.3 99.8V99.65C34.2 99.65 34.15 99.7 34.15 99.8C34.15 99.9 34.05 100 33.85 100.1C33.75 100.2 33.6 100.5 33.4 101C33.2 101.6 33 102.45 32.8 103.55C31.5 104.45 30.9 106 31 108.2C30.1 108.9 29.65 109.8 29.65 110.9C29.65 112.3 29.35 113.4 28.75 114.2C29.35 114.4 29.9 115.4 30.4 117.2C30.9 119 31.15 120.3 31.15 121.1C31.15 122 30.8 122.75 30.1 123.35C30 123.25 29.85 123.1 29.65 122.9C29.45 122.7 29.25 122.5 29.05 122.3C29.05 122.3 29.05 122.25 29.05 122.15C29.05 122.05 29.1 121.95 29.2 121.85C29.2 121.55 29.15 121.25 29.05 120.95C29.05 120.65 29 120.3 28.9 119.9C29 119.8 29.05 119.55 29.05 119.15C29.05 118.95 28.75 118.05 28.15 116.45C27.45 117.55 27.1 118.55 27.1 119.45C27.1 119.85 27.2 120.25 27.4 120.65C26.8 120.75 26.4 121.2 26.2 122L26.5 122.3C26.1 122.9 26 123.6 26.2 124.4C26.2 124.7 26 124.9 25.6 125C26.1 125.5 26.35 125.8 26.35 125.9C26.35 126.3 26.3 126.55 26.2 126.65H25.3ZM25.75 111.05L27.1 108.35C27.2 108.05 27.3 107.6 27.4 107C27.6 106.5 27.9 105.85 28.3 105.05V104.15L29.65 101.6C29.75 100.8 30 99.95 30.4 99.05C30.2 99.05 29.95 98.95 29.65 98.75C29.35 98.65 29.1 98.6 28.9 98.6C28.8 98.6 28.8 98.55 28.9 98.45C28.9 98.35 28.85 98.3 28.75 98.3C28.55 98.3 28.35 98.35 28.15 98.45C27.95 98.55 27.8 98.6 27.7 98.6C27.6 98.6 27.55 98.5 27.55 98.3H27.4L26.35 98.6C25.95 98.6 25.8 98.45 25.9 98.15C25.5 98.25 25.2 98.3 25 98.3C24.8 98.4 24.6 98.45 24.4 98.45C24.3 98.45 24.15 98.3 23.95 98C23.75 97.8 23.55 97.7 23.35 97.7C23.25 97.7 23 97.85 22.6 98.15C22.2 98.45 21.95 98.6 21.85 98.6C21.65 98.6 21.35 98.4 20.95 98C20.65 97.6 20.4 97.4 20.2 97.4C20.1 97.4 20.05 97.45 20.05 97.55H19.9C19.7 97.55 19.4 97.45 19 97.25C18.7 96.95 18.45 96.8 18.25 96.8C18.15 96.8 17.95 96.9 17.65 97.1C17.35 97.3 17.15 97.4 17.05 97.4C16.85 97.4 16.55 97.25 16.15 96.95C15.85 96.65 15.65 96.5 15.55 96.5V97.55C16.45 98.15 17.75 99.4 19.45 101.3L19.75 102.5C19.75 102.4 19.9 102.3 20.2 102.2C20.5 102.2 21.9 103.9 24.4 107.3C24.5 107.3 24.55 107.35 24.55 107.45L24.4 107.3V108.5C24.4 109.4 24.85 110.25 25.75 111.05ZM159.912 99.35C159.812 99.25 159.662 99.1 159.462 98.9C159.362 98.7 159.262 98.6 159.162 98.6H159.012C159.012 98.7 158.962 98.75 158.862 98.75C158.662 98.75 158.462 98.3 158.262 97.4C158.162 97.3 157.812 97.15 157.212 96.95C156.912 95.85 156.562 95.25 156.162 95.15V91.1L157.362 89.75C157.462 89.65 157.412 89.3 157.212 88.7C157.312 88.5 157.412 88.3 157.512 88.1C157.612 87.9 157.762 87.7 157.962 87.5C157.962 87.2 157.912 86.85 157.812 86.45C158.012 85.85 158.312 85.4 158.712 85.1C158.712 84.5 158.912 83.95 159.312 83.45C159.512 83.45 160.062 82.85 160.962 81.65L162.462 79.4C162.762 79.2 163.362 78.65 164.262 77.75V77.15C164.562 76.95 164.862 76.65 165.162 76.25C165.862 76.15 166.362 75.85 166.662 75.35C166.662 75.25 166.662 75.1 166.662 74.9C166.662 74.7 166.712 74.5 166.812 74.3C167.012 74.2 167.212 74.15 167.412 74.15C167.612 74.15 167.862 74.1 168.162 74C168.362 73.4 168.612 73 168.912 72.8C170.212 72.7 171.162 72 171.762 70.7C171.862 70.7 172.062 70.6 172.362 70.4C172.762 70.1 173.012 69.95 173.112 69.95C173.012 70.05 173.162 70.15 173.562 70.25C173.762 70.05 173.862 69.9 173.862 69.8C174.362 69.5 174.812 69.35 175.212 69.35C175.712 68.75 175.962 68.45 175.962 68.45C176.062 68.45 176.112 68.5 176.112 68.6C176.212 68.7 176.312 68.75 176.412 68.75C176.612 68.75 176.962 68.65 177.462 68.45C178.062 68.15 178.462 68 178.662 68H178.812C178.712 68.1 178.762 68.15 178.962 68.15C179.062 68.15 179.162 68.1 179.262 68C179.462 67.8 179.612 67.7 179.712 67.7C179.912 67.7 180.112 67.8 180.312 68C180.512 68.1 180.662 68.15 180.762 68.15C180.862 68.15 180.912 68.1 180.912 68C181.012 67.9 181.162 67.85 181.362 67.85C181.162 67.85 181.312 67.95 181.812 68.15C181.912 67.75 182.162 67.55 182.562 67.55C182.762 67.55 182.862 67.65 182.862 67.85C182.962 67.95 183.112 68 183.312 68C183.412 68 183.462 67.95 183.462 67.85H183.762C183.962 67.85 184.362 68.25 184.962 69.05C185.162 68.85 185.262 68.75 185.262 68.75C185.962 69.25 186.362 69.65 186.462 69.95V71.45L186.162 71.15C185.562 71.35 184.962 71.45 184.362 71.45C184.262 71.45 184.162 71.4 184.062 71.3C184.062 71.2 183.962 71.15 183.762 71.15C183.662 71.15 183.512 71.2 183.312 71.3C183.212 71.4 183.112 71.45 183.012 71.45C182.812 71.45 182.612 71.4 182.412 71.3C182.312 71.2 182.212 71.15 182.112 71.15C182.012 71.15 181.962 71.2 181.962 71.3C181.962 71.4 181.862 71.45 181.662 71.45H181.512C181.612 71.35 181.562 71.3 181.362 71.3C181.262 71.3 180.662 71.55 179.562 72.05C178.562 72.55 178.012 72.8 177.912 72.8C177.812 72.8 177.662 72.65 177.462 72.35L174.462 73.7L173.412 73.4C173.312 73.4 173.062 73.6 172.662 74C172.262 74.4 171.962 74.6 171.762 74.6C171.662 74.6 171.612 74.55 171.612 74.45H171.462C171.062 74.45 170.662 74.7 170.262 75.2C169.962 75.6 169.462 75.9 168.762 76.1C168.662 76.2 168.662 76.4 168.762 76.7C168.262 77.8 167.612 78.5 166.812 78.8C166.712 78.9 166.662 79.1 166.662 79.4H165.612C165.512 79.5 165.462 79.85 165.462 80.45C165.462 80.45 165.362 80.45 165.162 80.45C165.062 80.45 164.912 80.4 164.712 80.3C164.412 80.8 164.362 81.3 164.562 81.8H163.062C162.862 82.2 162.612 82.7 162.312 83.3C162.012 83.8 161.712 84.45 161.412 85.25C161.312 85.55 161.112 85.95 160.812 86.45C160.612 86.85 160.412 87.35 160.212 87.95C159.612 88.65 159.112 89.5 158.712 90.5V91.85C158.712 91.95 158.662 92.15 158.562 92.45C158.462 92.75 158.412 93 158.412 93.2C158.912 93.7 159.412 93.95 159.912 93.95C160.212 93.95 160.562 93.9 160.962 93.8C161.462 93.6 161.912 93.1 162.312 92.3L162.762 92.6C163.562 92.3 164.462 91.75 165.462 90.95C165.562 90.85 165.812 90.75 166.212 90.65C166.612 90.55 166.812 90.3 166.812 89.9C166.912 89.9 167.012 89.95 167.112 90.05L167.712 89C168.812 88.8 169.412 88.2 169.512 87.2C169.712 87.2 169.862 87.25 169.962 87.35L171.012 86.45C171.012 86.25 171.062 86.05 171.162 85.85C171.262 85.85 171.362 85.85 171.462 85.85C171.562 85.75 171.712 85.65 171.912 85.55L172.812 83.9C173.112 83.6 173.612 83.4 174.312 83.3C174.612 83.1 174.862 82.85 175.062 82.55C175.362 82.25 175.612 82 175.812 81.8C175.712 81.6 175.612 81.4 175.512 81.2C175.412 81 175.262 80.8 175.062 80.6C174.862 80.3 174.962 80.05 175.362 79.85C175.162 79.95 175.062 79.85 175.062 79.55V78.65C175.362 78.45 175.712 78.25 176.112 78.05C176.612 77.85 177.112 77.55 177.612 77.15C178.012 76.95 178.262 76.85 178.362 76.85C178.062 76.85 178.162 76.95 178.662 77.15C178.862 76.65 179.112 76.1 179.412 75.5C179.712 74.9 180.012 74.2 180.312 73.4L181.512 72.8C181.512 72.8 181.612 73.1 181.812 73.7C181.012 74.8 180.612 75.65 180.612 76.25C180.612 76.55 181.112 76.85 182.112 77.15C182.112 77.15 182.112 77.2 182.112 77.3C182.112 77.3 182.062 77.35 181.962 77.45C182.362 77.75 182.662 78.05 182.862 78.35C183.162 78.65 183.362 78.9 183.462 79.1C182.762 80.1 182.412 81.05 182.412 81.95L182.712 82.25C182.612 82.35 182.562 82.75 182.562 83.45C182.662 84.05 182.762 84.7 182.862 85.4C183.062 86 183.262 86.7 183.462 87.5L184.512 89V89.45C184.512 90.85 185.012 92.05 186.012 93.05L186.462 92.75V93.2C187.062 93.4 187.712 93.85 188.412 94.55H190.062C190.362 94.95 190.662 95.15 190.962 95.15C192.562 95.15 193.362 94.75 193.362 93.95C193.362 93.95 193.462 94.05 193.662 94.25C194.762 93.75 196.412 92.1 198.612 89.3C200.112 87.5 200.962 86.65 201.162 86.75L201.762 86.9V87.5L201.912 87.65C201.912 87.65 201.512 88.2 200.712 89.3C200.712 89.7 200.312 90.2 199.512 90.8C199.712 90.9 199.712 91.05 199.512 91.25L198.612 91.85L198.912 92.3C197.912 92.6 197.112 93 196.512 93.5C195.912 94 195.662 94.35 195.762 94.55C195.562 94.55 195.212 94.85 194.712 95.45C194.312 95.45 194.112 95.65 194.112 96.05C193.912 95.85 193.812 95.75 193.812 95.75L193.362 96.05C193.362 96.05 193.262 96.1 193.062 96.2C192.962 96.3 192.812 96.45 192.612 96.65C192.512 96.65 192.362 96.65 192.162 96.65C191.962 96.65 191.762 96.7 191.562 96.8L191.262 97.25H190.512C190.412 97.15 190.312 97.1 190.212 97.1C189.312 97.1 188.612 97.35 188.112 97.85V97.25H186.162V96.65C185.962 96.85 185.812 96.95 185.712 96.95C185.512 96.95 185.212 96.8 184.812 96.5C184.512 96.1 184.162 95.95 183.762 96.05C183.262 95.25 182.662 94.45 181.962 93.65C181.362 92.75 180.962 92.4 180.762 92.6C180.762 92.5 180.812 92.4 180.912 92.3C180.612 92 180.412 91.55 180.312 90.95C179.612 90.15 178.262 87.7 176.262 83.6C175.862 84 175.362 84.55 174.762 85.25C174.162 85.95 173.462 86.7 172.662 87.5C172.562 87.7 172.462 87.95 172.362 88.25C172.262 88.45 172.162 88.75 172.062 89.15L171.012 89.75C171.012 89.95 170.962 90.2 170.862 90.5C170.862 90.7 170.812 91 170.712 91.4C170.612 91.4 170.312 91.6 169.812 92C169.412 92.4 169.012 92.6 168.612 92.6C168.512 92.6 168.362 92.5 168.162 92.3C167.962 92.5 167.712 92.8 167.412 93.2C167.112 93.5 166.762 93.9 166.362 94.4C166.462 94.5 166.762 94.55 167.262 94.55V95.15C167.262 95.25 166.962 95.6 166.362 96.2L166.662 96.5C166.362 96.7 165.712 97.3 164.712 98.3C164.612 98.3 164.412 98.3 164.112 98.3C163.912 98.3 163.662 98.35 163.362 98.45C162.062 98.95 161.662 99.2 162.162 99.2C161.862 99.2 161.512 99.15 161.112 99.05H160.212C160.012 99.05 159.912 99.15 159.912 99.35ZM198.646 99.8C198.546 99.7 198.496 99.55 198.496 99.35C198.496 98.95 198.646 98.55 198.946 98.15C199.246 97.75 199.396 97.55 199.396 97.55L199.546 94.85C199.746 94.55 200.146 94.15 200.746 93.65C200.746 93.35 200.846 92.9 201.046 92.3C200.946 92.4 200.896 91.95 200.896 90.95C201.096 90.75 201.246 90.55 201.346 90.35C201.246 90.25 201.196 89.35 201.196 87.65C201.196 87.75 201.346 87.5 201.646 86.9C201.546 86.5 201.546 86 201.646 85.4C201.846 85 201.996 84.6 202.096 84.2C202.196 83.7 202.196 83.25 202.096 82.85L201.796 79.55C201.696 78.15 201.696 77.4 201.796 77.3C201.596 76.8 201.646 76.35 201.946 75.95C201.646 74.25 200.546 72.75 198.646 71.45V70.7C198.746 70.7 198.896 70.65 199.096 70.55C199.296 70.45 199.446 70.4 199.546 70.4C199.646 70.4 199.846 70.5 200.146 70.7C200.546 70.9 200.796 71 200.896 71H202.846C202.746 71.1 203.046 71.65 203.746 72.65C204.546 73.55 205.096 74.55 205.396 75.65C205.396 75.95 205.446 76.3 205.546 76.7C205.746 77.1 205.996 77.35 206.296 77.45C206.596 78.35 206.746 79.3 206.746 80.3C206.746 80.7 206.696 81.15 206.596 81.65C206.596 82.05 206.546 82.5 206.446 83L206.896 83.45C207.196 84.15 207.346 84.9 207.346 85.7L207.796 85.85L210.946 81.2C210.946 81.1 211.246 80.85 211.846 80.45C212.046 80.05 212.346 79.65 212.746 79.25C213.246 79.25 213.496 79.1 213.496 78.8C213.496 78.4 213.996 77.8 214.996 77C215.296 75.6 216.096 74.85 217.396 74.75V74.6C217.396 74 217.646 73.7 218.146 73.7C218.646 73.6 218.946 73.2 219.046 72.5L220.396 71.6C220.496 71.4 220.596 71.2 220.696 71C220.796 70.8 220.946 70.55 221.146 70.25C221.246 70.15 221.646 70 222.346 69.8C224.146 68.6 225.046 67.95 225.046 67.85C225.146 67.75 225.346 67.6 225.646 67.4C225.846 67.3 226.046 67.2 226.246 67.1C226.446 67 226.696 66.9 226.996 66.8C226.996 66.8 227.096 66.65 227.296 66.35C227.496 65.95 227.696 65.75 227.896 65.75C227.996 65.75 228.046 65.8 228.046 65.9H228.196C227.996 65.9 228.546 65.55 229.846 64.85C230.146 64.65 230.446 64.5 230.746 64.4C231.146 64.3 231.546 64.2 231.946 64.1C232.546 63.1 233.396 62.6 234.496 62.6C234.596 62.6 234.646 62.65 234.646 62.75C234.746 62.85 234.896 62.9 235.096 62.9C235.196 62.9 235.296 62.85 235.396 62.75C235.596 62.65 235.746 62.6 235.846 62.6C236.846 62.6 237.596 63.15 238.096 64.25C238.896 66.05 239.296 67.95 239.296 69.95V73.85C239.296 73.95 239.396 74.1 239.596 74.3C239.596 74.5 239.546 74.7 239.446 74.9L240.196 80L241.096 84.65C241.296 85.05 241.546 85.5 241.846 86C242.146 86.4 242.396 86.9 242.596 87.5L243.046 87.8C243.546 88 243.796 88.5 243.796 89.3L245.596 90.05C246.096 90.55 246.296 90.75 246.196 90.65L247.996 89.75C248.196 89.85 248.346 89.95 248.446 90.05C248.546 90.05 248.596 90.05 248.596 90.05C248.796 90.05 249.196 89.7 249.796 89C250.496 88.3 250.896 87.8 250.996 87.5C251.196 87.5 251.346 87.55 251.446 87.65C251.546 87.85 251.596 88 251.596 88.1C251.696 88.2 251.746 88.25 251.746 88.25C251.746 88.55 250.746 89.7 248.746 91.7C248.646 91.7 248.546 91.8 248.446 92C248.346 92.1 248.246 92.15 248.146 92.15C247.946 92.15 247.896 92.1 247.996 92H247.846C247.646 92 247.446 92.3 247.246 92.9L245.296 94.25V94.85C244.196 95.25 243.396 95.55 242.896 95.75C242.396 95.95 242.196 96.05 242.296 96.05C241.896 96.05 241.646 95.95 241.546 95.75C241.446 95.55 241.346 95.45 241.246 95.45H241.096C241.096 95.55 241.046 95.6 240.946 95.6C240.346 95.6 239.946 95.3 239.746 94.7L239.596 94.85C239.196 94.85 238.696 94.5 238.096 93.8C237.496 93 237.096 92.5 236.896 92.3L237.196 92C237.196 91.8 236.996 91.65 236.596 91.55C236.296 90.35 236.046 89.85 235.846 90.05C235.646 90.25 235.496 89.7 235.396 88.4C235.496 88.2 235.546 87.95 235.546 87.65C235.546 87.25 235.596 86.85 235.696 86.45C235.196 85.55 234.646 85.25 234.046 85.55C234.046 85.35 233.946 84.95 233.746 84.35C233.846 84.15 233.896 84.05 233.896 84.05C233.896 83.95 233.896 83.9 233.896 83.9C233.596 83.4 233.546 82.75 233.746 81.95L234.046 80.6L233.596 80V78.65C233.196 78.45 232.896 78.25 232.696 78.05C232.496 77.75 232.296 77.55 232.096 77.45V74.9C232.296 74.4 232.446 74.1 232.546 74L231.796 72.95V72.65C231.796 72.35 231.696 72 231.496 71.6C231.296 71.1 231.046 70.5 230.746 69.8C230.146 69.2 229.546 68.9 228.946 68.9C228.846 68.9 228.746 68.95 228.646 69.05C228.646 69.15 228.546 69.2 228.346 69.2C228.546 69.2 228.396 69.1 227.896 68.9C227.696 69.1 227.596 69.3 227.596 69.5C226.896 69.5 226.396 69.65 226.096 69.95C225.796 70.25 225.646 70.4 225.646 70.4C225.546 70.4 225.496 70.35 225.496 70.25C225.596 70.15 225.596 70.1 225.496 70.1C225.496 70.1 224.796 70.7 223.396 71.9C223.196 71.9 223.046 71.95 222.946 72.05C222.446 72.35 222.196 72.65 222.196 72.95C220.896 73.35 219.396 74.7 217.696 77C217.596 77 217.346 77.1 216.946 77.3C216.246 78.1 215.346 79.1 214.246 80.3C213.146 81.4 211.896 82.7 210.496 84.2C210.196 84.5 209.946 84.8 209.746 85.1C209.546 85.4 208.996 86.15 208.096 87.35C207.996 87.45 207.846 87.6 207.646 87.8C207.446 88 207.246 88.2 207.046 88.4C207.046 88.7 206.846 89.2 206.446 89.9C206.146 90.5 205.996 91.35 205.996 92.45C205.996 92.65 205.746 93.1 205.246 93.8C204.746 94.5 204.496 95.05 204.496 95.45C204.496 95.65 204.546 95.8 204.646 95.9C204.346 96 203.896 96.2 203.296 96.5C202.796 96.8 202.496 96.95 202.396 96.95C202.296 96.95 202.196 96.9 202.096 96.8C202.096 96.7 202.046 96.65 201.946 96.65C201.746 96.65 201.446 96.85 201.046 97.25V97.55C201.046 97.85 200.896 98.3 200.596 98.9C199.896 98.9 199.546 99.2 199.546 99.8C199.146 99.9 198.846 99.9 198.646 99.8ZM260.174 98.6C259.874 98.6 259.624 98.35 259.424 97.85C259.324 97.95 259.274 98.05 259.274 98.15H258.374L257.924 97.25C257.824 97.35 257.774 97.45 257.774 97.55C257.674 97.55 257.524 97.45 257.324 97.25L256.874 97.55C256.374 97.05 255.824 96.4 255.224 95.6C254.724 94.7 254.424 93.8 254.324 92.9C254.224 92.8 254.024 92.75 253.724 92.75V91.55C254.124 91.45 254.374 90.65 254.474 89.15L254.924 88.55V87.8L254.624 87.5L255.224 87.05L256.874 82.4L258.374 80.75V80.3C259.574 79.5 260.324 78.65 260.624 77.75C261.024 77.75 261.224 77.55 261.224 77.15C262.524 76.75 263.024 76.1 262.724 75.2C262.924 75.1 263.024 75.05 263.024 75.05C263.124 75.05 263.174 75.05 263.174 75.05C263.274 75.05 263.474 75.15 263.774 75.35C264.074 75.45 264.274 75.5 264.374 75.5C264.574 75.5 264.724 75.45 264.824 75.35C265.024 75.25 265.174 75.2 265.274 75.2C265.674 75.6 265.924 75.8 266.024 75.8C266.524 75.8 267.024 75.6 267.524 75.2C267.524 75.3 267.574 75.45 267.674 75.65C267.774 75.85 267.824 76 267.824 76.1C267.824 76.6 267.624 77.05 267.224 77.45L267.674 78.05C267.674 78.75 267.074 79.85 265.874 81.35C264.674 82.65 263.824 83.4 263.324 83.6C263.224 83.7 263.124 83.9 263.024 84.2C262.924 84.4 262.774 84.6 262.574 84.8H262.274L261.974 84.5L260.474 86.45C260.474 86.85 260.074 87.6 259.274 88.7C258.974 88.8 258.724 88.85 258.524 88.85C258.424 88.75 258.374 88.75 258.374 88.85V89.9C258.874 90.8 259.074 91.4 258.974 91.7C258.674 92.3 258.524 92.65 258.524 92.75C258.524 92.65 258.824 93.05 259.424 93.95C259.324 94.05 259.274 94.4 259.274 95C260.074 95.1 261.124 95.55 262.424 96.35H263.024C263.424 96.35 263.674 96.3 263.774 96.2C263.974 96 264.074 95.9 264.074 95.9C264.174 95.9 264.224 95.95 264.224 96.05H264.374C264.474 96.05 264.724 95.85 265.124 95.45C265.524 95.05 265.774 94.85 265.874 94.85C265.974 94.85 266.024 94.9 266.024 95C266.024 95.1 266.074 95.15 266.174 95.15C266.274 95.15 266.474 95.1 266.774 95C267.074 94.9 267.324 94.85 267.524 94.85V94.4C267.424 94.3 267.424 94.25 267.524 94.25V94.4C267.624 94.5 267.974 94.65 268.574 94.85L268.424 94.25C268.724 94.15 268.974 93.85 269.174 93.35C269.674 93.35 270.124 93.3 270.524 93.2C271.024 93 271.274 92.75 271.274 92.45H272.474C272.474 92.65 272.574 92.75 272.774 92.75C273.774 92.75 274.324 92.1 274.424 90.8L275.324 89.9C275.324 89.9 275.424 90 275.624 90.2C276.024 89.8 276.374 89.6 276.674 89.6C276.774 89.6 276.824 89.65 276.824 89.75C276.924 89.85 277.074 89.9 277.274 89.9C277.574 89.9 277.874 89.75 278.174 89.45C278.474 89.15 278.624 88.95 278.624 88.85C278.824 88.65 279.074 88.45 279.374 88.25C279.674 88.05 279.924 87.75 280.124 87.35L281.024 87.8C280.924 87.7 281.974 86.8 284.174 85.1C285.174 84.7 285.674 84.4 285.674 84.2C286.074 84.2 286.474 84.05 286.874 83.75V83.3L288.974 82.25V83.15H288.224C288.124 83.25 288.074 83.55 288.074 84.05L284.624 86.75C284.424 86.75 284.374 86.7 284.474 86.6H284.324C284.424 86.6 283.974 87.1 282.974 88.1C282.774 88.3 282.374 88.4 281.774 88.4C280.474 89.6 279.974 90.15 280.274 90.05C280.174 89.95 280.074 89.9 279.974 89.9C279.874 90 279.824 90.2 279.824 90.5H279.674C279.274 90.5 278.674 90.9 277.874 91.7C277.774 91.7 277.624 91.7 277.424 91.7C277.224 91.7 277.024 91.75 276.824 91.85C276.424 92.15 275.924 92.55 275.324 93.05C274.824 93.45 274.224 93.95 273.524 94.55H272.624C271.924 95.15 271.424 95.45 271.124 95.45H270.674C270.574 95.35 270.474 95.3 270.374 95.3C270.274 95.3 269.874 95.5 269.174 95.9C268.574 96.3 268.174 96.5 267.974 96.5H267.824C267.824 96.4 267.774 96.35 267.674 96.35C267.574 96.35 267.174 96.55 266.474 96.95C265.874 97.25 265.524 97.4 265.424 97.4H265.274C265.274 97.3 265.174 97.25 264.974 97.25C264.874 97.25 264.724 97.3 264.524 97.4C264.424 97.5 264.174 97.6 263.774 97.7C262.774 98.2 262.474 98.45 262.874 98.45C262.774 98.45 262.474 98.4 261.974 98.3C261.474 98.2 261.124 98.15 260.924 98.15L260.174 98.6ZM290.174 81.95C290.074 81.95 289.974 81.9 289.874 81.8C289.874 81.6 289.824 81.5 289.724 81.5L291.824 79.25C292.224 79.25 292.424 79.35 292.424 79.55C292.424 79.95 292.074 80.45 291.374 81.05C290.774 81.55 290.374 81.85 290.174 81.95ZM270.524 69.95C269.724 69.95 268.624 69.4 267.224 68.3C266.024 67.1 265.424 66.15 265.424 65.45C266.624 64.95 267.924 64.4 269.324 63.8C270.824 63.1 272.374 62.35 273.974 61.55H274.124C273.724 62.65 273.174 63.55 272.474 64.25L272.774 65.3V66.2L272.024 67.1C272.024 69 271.524 69.95 270.524 69.95ZM297.504 99.2C297.604 99.2 297.504 99.05 297.204 98.75C297.004 98.95 296.554 99.05 295.854 99.05C295.654 99.05 295.354 98.95 294.954 98.75C294.654 98.65 294.454 98.6 294.354 98.6C294.254 98.6 294.004 98.65 293.604 98.75C293.304 98.85 293.054 98.9 292.854 98.9C292.754 98.9 292.454 98.8 291.954 98.6C291.454 98.5 291.104 98.45 290.904 98.45C290.804 97.15 289.654 96.65 287.454 96.95V96.65C287.454 95.95 287.304 95.4 287.004 95C286.704 94.6 286.454 93.95 286.254 93.05C286.154 92.95 285.954 92.75 285.654 92.45C285.454 92.05 285.354 91.3 285.354 90.2C285.354 90.2 285.454 90 285.654 89.6C285.754 89.5 285.654 89.25 285.354 88.85C285.454 88.75 285.654 87.95 285.954 86.45C286.054 85.95 286.104 85.55 286.104 85.25C286.204 84.95 286.254 84.7 286.254 84.5C285.654 84 285.354 83.55 285.354 83.15L285.804 82.1C285.904 82.2 286.254 82.25 286.854 82.25H287.454C287.654 81.95 287.854 81.65 288.054 81.35C288.354 80.95 288.704 80.55 289.104 80.15C289.704 80.15 290.254 79.6 290.754 78.5L290.604 77.9C290.704 77.7 290.804 77.55 290.904 77.45C290.904 77.45 290.954 77.45 291.054 77.45C291.054 77.45 291.004 77.45 290.904 77.45C291.004 77.45 291.154 77.5 291.354 77.6C291.454 77.5 291.654 77.3 291.954 77C292.254 76.7 292.754 76.3 293.454 75.8C293.754 75.4 294.254 74.9 294.954 74.3C296.154 73.5 296.804 73.1 296.904 73.1C297.104 73.1 297.554 72.8 298.254 72.2C298.454 72.3 298.604 72.4 298.704 72.5C298.804 72.5 298.854 72.5 298.854 72.5C299.054 72.5 299.854 72.15 301.254 71.45C301.154 71.85 301.254 72.05 301.554 72.05H302.604C303.104 71.75 303.354 71.6 303.354 71.6C304.354 71.6 305.554 72.15 306.954 73.25C307.054 73.35 307.204 73.4 307.404 73.4V75.8C307.204 75.8 307.004 75.7 306.804 75.5L306.204 76.85C306.604 77.45 306.804 77.75 306.804 77.75C306.604 77.85 306.104 78.7 305.304 80.3V81.5C304.904 81.5 304.554 81.55 304.254 81.65C302.654 82.75 301.754 83.3 301.554 83.3H301.254C301.154 83.2 301.054 83.15 300.954 83.15C300.554 83.15 300.004 83.35 299.304 83.75C299.204 83.85 299.054 84.05 298.854 84.35C298.654 84.55 298.404 84.65 298.104 84.65H297.954C297.954 84.55 297.904 84.5 297.804 84.5C297.604 84.5 297.054 84.7 296.154 85.1C295.354 85.4 294.904 85.55 294.804 85.55H294.504C294.404 85.45 294.304 85.4 294.204 85.4L293.754 85.85H292.854C292.454 85.85 292.154 85.75 291.954 85.55H290.004C290.004 85.95 289.854 86.55 289.554 87.35C289.354 88.15 289.254 88.6 289.254 88.7C289.254 89 289.604 89.7 290.304 90.8C290.404 90.9 290.604 91.15 290.904 91.55C291.204 91.85 291.654 92.25 292.254 92.75C292.454 93.15 292.754 93.55 293.154 93.95C293.354 94.05 293.554 94.1 293.754 94.1C293.954 94.1 294.204 94.15 294.504 94.25L294.954 94.85C295.254 94.65 295.704 94.65 296.304 94.85L297.054 95.3C297.554 95.3 297.804 95.3 297.804 95.3C297.804 95.2 297.804 95.15 297.804 95.15C297.904 95.25 297.904 95.3 297.804 95.3C297.904 95.4 298.004 95.45 298.104 95.45C298.204 95.45 298.304 95.4 298.404 95.3C298.604 95.1 298.754 95 298.854 95H299.154C299.154 95.1 299.204 95.15 299.304 95.15C299.604 95.15 299.954 94.95 300.354 94.55C300.654 94.65 300.954 94.65 301.254 94.55L301.404 94.7V95.15C301.204 95.25 300.954 95.4 300.654 95.6C300.354 95.8 299.954 96 299.454 96.2V96.8C299.454 96.9 299.654 96.95 300.054 96.95C301.754 96.95 303.104 96.45 304.104 95.45C304.304 95.55 304.454 95.65 304.554 95.75C304.654 95.75 304.704 95.75 304.704 95.75C304.904 95.75 305.004 95.65 305.004 95.45H305.754C305.954 95.35 306.254 95.1 306.654 94.7C307.054 94.2 307.454 93.95 307.854 93.95L308.454 94.1L308.904 92.9L309.354 93.2C309.554 93 310.004 92.9 310.704 92.9C310.704 92.9 310.704 92.85 310.704 92.75C310.704 92.65 310.754 92.55 310.854 92.45C311.854 92.25 313.104 91.4 314.604 89.9H315.204L317.454 88.1C317.454 87.9 317.604 87.6 317.904 87.2C318.004 87.2 318.154 87.3 318.354 87.5L319.704 85.7C320.004 85.7 320.354 85.55 320.754 85.25L321.204 85.7L320.154 87.05C319.554 87.45 318.804 88.05 317.904 88.85C317.004 89.65 316.004 90.6 314.904 91.7C314.204 91.7 313.804 91.9 313.704 92.3C312.804 92.7 312.204 93.15 311.904 93.65L311.454 93.2C311.354 93.3 311.054 93.55 310.554 93.95C310.154 94.25 309.454 94.65 308.454 95.15C308.254 95.35 307.954 95.65 307.554 96.05C307.154 96.35 306.754 96.5 306.354 96.5C306.154 96.5 306.104 96.45 306.204 96.35H306.054C305.654 96.35 305.254 96.5 304.854 96.8C304.454 97.1 304.254 97.35 304.254 97.55C304.154 97.55 304.004 97.45 303.804 97.25C302.504 97.95 301.754 98.3 301.554 98.3H301.254L301.104 98.15L298.854 98.75C298.854 98.75 298.854 98.7 298.854 98.6C298.854 98.5 298.804 98.4 298.704 98.3L298.254 98.9C298.154 98.9 298.004 98.95 297.804 99.05C297.704 99.15 297.604 99.2 297.504 99.2ZM293.904 84.05C293.804 83.75 293.904 83.6 294.204 83.6C294.304 83.6 294.354 83.65 294.354 83.75H294.654C294.754 83.75 294.954 83.6 295.254 83.3C295.654 83 295.904 82.85 296.004 82.85C296.104 82.85 296.254 82.9 296.454 83C296.654 83.1 296.804 83.15 296.904 83.15C296.704 83.15 296.954 82.8 297.654 82.1L298.104 82.4C300.404 80.9 301.554 79.6 301.554 78.5C301.554 77.2 300.904 76.4 299.604 76.1C298.404 75.8 297.254 75.5 296.154 75.2C295.954 75.4 295.754 75.5 295.554 75.5C295.054 76.3 294.504 76.9 293.904 77.3C293.704 77.3 293.104 77.8 292.104 78.8C292.104 78.9 291.804 79.35 291.204 80.15C291.004 80.85 290.804 81.4 290.604 81.8C290.504 82.2 290.454 82.5 290.454 82.7C290.854 83.4 291.254 83.75 291.654 83.75H291.804C291.904 83.65 292.004 83.6 292.104 83.6C292.604 83.6 293.204 83.75 293.904 84.05ZM321.804 84.95V84.65C321.804 84.05 322.104 83.7 322.704 83.6C322.604 84 322.304 84.45 321.804 84.95ZM330.436 99.5C329.936 99 329.436 98.75 328.936 98.75L327.736 99.05C327.636 99.05 327.436 98.95 327.136 98.75C326.836 98.55 326.636 98.45 326.536 98.45C326.236 98.45 326.086 98.55 326.086 98.75C325.486 98.15 324.986 97.85 324.586 97.85H324.436C324.436 97.95 324.336 98 324.136 98C323.836 98 323.536 97.75 323.236 97.25L322.636 96.5C322.536 96.5 322.236 96.2 321.736 95.6C321.236 95 321.086 94.05 321.286 92.75V92.3C321.186 92.1 320.886 92.1 320.386 92.3C320.286 92.1 320.186 91.9 320.086 91.7C319.986 91.4 319.836 91.1 319.636 90.8C319.536 90.8 319.086 91.2 318.286 92L317.386 92.45L316.486 93.8C315.786 94.2 315.336 94.5 315.136 94.7C314.936 94.9 314.786 95 314.686 95H314.236C313.836 94.9 313.636 94.7 313.636 94.4C313.636 94.2 313.836 93.85 314.236 93.35C314.736 92.85 315.086 92.6 315.286 92.6C315.486 92.7 315.636 92.75 315.736 92.75L315.886 92.15C316.886 91.75 317.386 91.2 317.386 90.5L318.436 89.6C318.836 89.6 319.186 89.3 319.486 88.7L320.086 88.25L320.686 85.25C320.886 85.25 321.036 85.15 321.136 84.95C321.236 84.75 321.486 84.15 321.886 83.15C321.986 83.05 321.986 82.7 321.886 82.1C321.886 82.1 321.836 82.1 321.736 82.1C321.736 82.1 321.686 82.05 321.586 81.95C321.886 81.55 321.886 81 321.586 80.3C321.686 79.9 322.086 79.6 322.786 79.4C322.886 79.2 323.236 78.8 323.836 78.2C323.936 78.3 324.136 77.35 324.436 75.35C324.436 75.15 324.686 74.95 325.186 74.75C325.286 73.65 325.436 72.85 325.636 72.35C325.936 71.75 326.386 71 326.986 70.1C327.186 68.8 327.436 68 327.736 67.7C328.836 66.3 329.436 65.25 329.536 64.55C330.236 64.45 330.936 63.75 331.636 62.45C331.636 62.45 331.586 62.45 331.486 62.45C331.486 62.45 331.486 62.4 331.486 62.3C331.486 61.5 332.186 60.25 333.586 58.55C334.986 56.95 336.586 54.9 338.386 52.4C338.686 52.3 339.436 51.65 340.636 50.45C341.236 50.25 341.586 50.1 341.686 50C341.786 50.2 341.836 50.35 341.836 50.45C341.836 51.05 341.536 51.45 340.936 51.65C339.836 53.35 339.286 54.1 339.286 53.9C339.286 54.1 339.386 54.2 339.586 54.2C339.686 54.2 339.736 54.15 339.736 54.05H339.886C340.086 54.05 340.436 54.3 340.936 54.8C341.136 54.6 341.386 54.45 341.686 54.35C341.686 54.35 341.686 54.3 341.686 54.2C341.686 54 341.736 53.8 341.836 53.6C341.936 53.5 342.136 53.4 342.436 53.3C342.736 53.1 343.086 52.8 343.486 52.4C343.586 52 343.786 51.5 344.086 50.9C344.486 50.2 345.036 49.65 345.736 49.25C345.636 49.15 345.636 48.9 345.736 48.5C346.036 48.6 346.336 48.45 346.636 48.05C347.036 47.65 347.386 47.5 347.686 47.6C347.886 47 348.086 46.55 348.286 46.25L349.186 45.8C349.386 44.3 349.886 43.55 350.686 43.55C350.886 43.65 351.036 43.7 351.136 43.7L351.286 43.1C351.386 43 351.536 42.9 351.736 42.8C351.936 42.7 352.136 42.55 352.336 42.35V42.05C352.336 41.05 352.936 40.5 354.136 40.4C354.236 40.2 354.286 39.75 354.286 39.05H355.036C355.336 38.75 355.536 38.5 355.636 38.3C355.736 38.1 355.986 37.9 356.386 37.7C356.286 36.6 356.986 34.9 358.486 32.6C358.086 32.9 357.736 33.05 357.436 33.05C357.336 33.05 357.286 33 357.286 32.9C357.286 32.7 357.286 32.5 357.286 32.3C357.286 32.1 357.336 31.8 357.436 31.4C357.636 31.2 357.886 30.95 358.186 30.65C358.586 30.35 358.986 30.05 359.386 29.75C359.586 29.55 359.786 29.35 359.986 29.15C360.286 28.85 360.636 28.5 361.036 28.1C361.336 28 361.836 27.45 362.536 26.45C362.736 26.25 362.986 26 363.286 25.7C363.586 25.3 363.836 24.9 364.036 24.5C364.836 24.3 365.386 23.8 365.686 23C365.986 22.2 366.936 21.5 368.536 20.9C368.936 20.4 369.686 19.85 370.786 19.25C370.786 19.25 370.886 18.95 371.086 18.35C371.686 18.15 372.486 17.4 373.486 16.1C373.586 15.9 374.136 15.45 375.136 14.75C376.236 13.95 376.836 13.55 376.936 13.55H377.536C377.536 13.55 377.886 13.75 378.586 14.15C379.286 14.45 380.136 14.9 381.136 15.5L381.436 17.3L380.986 18.2L382.036 18.65C382.136 18.65 382.186 18.8 382.186 19.1C382.186 19.6 382.036 20.4 381.736 21.5C381.636 22.1 381.536 22.7 381.436 23.3C381.436 23.8 381.486 24.3 381.586 24.8L378.586 29L377.536 30.5C377.436 30.5 377.186 30.6 376.786 30.8C375.686 31.8 374.436 33.6 373.036 36.2C372.936 36.2 372.886 36.2 372.886 36.2C372.886 36.1 372.836 36.05 372.736 36.05C372.236 36.35 371.786 37 371.386 38L370.036 38.6C369.836 39 369.536 39.4 369.136 39.8L368.836 39.5L368.386 41C367.886 41.4 367.586 41.8 367.486 42.2C367.486 42.5 367.336 42.85 367.036 43.25L365.236 44.75C365.136 44.85 364.536 45.25 363.436 45.95C362.436 46.65 361.936 47.15 361.936 47.45C361.336 48.15 360.536 49.05 359.536 50.15C358.636 51.15 357.536 52.4 356.236 53.9C355.836 54.4 355.286 55 354.586 55.7C353.986 56.3 353.186 57 352.186 57.8C351.986 58 351.636 58.4 351.136 59C350.636 59.5 350.036 60.15 349.336 60.95C348.836 61.25 348.236 61.65 347.536 62.15C346.836 62.65 346.086 63.25 345.286 63.95C345.286 64.05 345.136 64.2 344.836 64.4C344.536 64.6 344.086 65.15 343.486 66.05H343.036C342.736 66.45 342.336 66.9 341.836 67.4C341.436 67.9 340.986 68.55 340.486 69.35C340.286 69.35 340.136 69.4 340.036 69.5C339.336 70.5 338.586 71.25 337.786 71.75C337.786 71.85 337.686 72 337.486 72.2C337.386 72.4 337.086 72.65 336.586 72.95C336.586 73.15 336.486 73.45 336.286 73.85C336.086 74.25 335.686 74.6 335.086 74.9C334.986 75 334.936 75.2 334.936 75.5H334.486C334.186 75.8 333.936 76.2 333.736 76.7C332.736 77 332.286 77.5 332.386 78.2L331.036 79.4C330.136 80.1 329.236 81.05 328.336 82.25C328.236 82.55 327.936 83.85 327.436 86.15C327.636 86.35 327.636 86.9 327.436 87.8C327.136 88.8 326.986 89.45 326.986 89.75C326.986 90.05 326.986 90.25 326.986 90.35C326.986 90.85 327.236 91.45 327.736 92.15C328.336 92.85 328.636 93.4 328.636 93.8C328.936 94 329.336 94 329.836 93.8C329.836 94 330.036 94.15 330.436 94.25C330.736 94.95 331.336 95.35 332.236 95.45L332.686 94.85H333.136C333.236 95.25 333.486 95.45 333.886 95.45C334.086 95.45 334.336 95.35 334.636 95.15C335.036 94.95 335.286 94.85 335.386 94.85C335.286 94.95 335.436 95.05 335.836 95.15C335.936 95.05 335.986 94.8 335.986 94.4H337.186C339.186 94.4 340.436 94 340.936 93.2C341.336 93.1 341.786 92.95 342.286 92.75C342.786 92.55 343.386 92.35 344.086 92.15C344.486 91.95 344.736 91.65 344.836 91.25C344.736 91.25 344.686 91.2 344.686 91.1H346.336V90.35C346.536 90.25 347.086 90.2 347.986 90.2L348.586 89.3L350.236 88.4C350.336 88.4 350.536 88.35 350.836 88.25C351.236 88.15 351.736 87.75 352.336 87.05C352.536 87.05 352.736 87 352.936 86.9C353.536 86.5 354.486 85.6 355.786 84.2L358.636 82.7L358.936 82.4H360.286C360.186 82.8 359.886 83.3 359.386 83.9L357.436 85.25C356.136 86.15 355.536 86.6 355.636 86.6H355.486C355.486 86.5 355.436 86.45 355.336 86.45C354.536 86.85 354.036 87.35 353.836 87.95C353.536 87.95 353.336 88.15 353.236 88.55C353.036 88.55 352.786 88.6 352.486 88.7C352.486 88.7 352.486 88.75 352.486 88.85C352.486 88.85 352.436 88.95 352.336 89.15L350.386 90.5C350.386 91 349.986 91.35 349.186 91.55C348.886 91.55 348.536 91.35 348.136 90.95L347.236 91.55V91.7C347.236 92.2 346.986 92.6 346.486 92.9C345.986 93.2 345.586 93.25 345.286 93.05C345.386 93.15 345.436 93.35 345.436 93.65C345.436 93.75 345.186 94.15 344.686 94.85L341.086 96.65H340.936C340.936 96.55 340.836 96.5 340.636 96.5C340.036 96.5 339.436 96.8 338.836 97.4C338.536 97.5 337.936 97.7 337.036 98C336.136 98.3 335.636 98.45 335.536 98.45L335.086 98.15H333.136C332.736 98.15 332.486 98.3 332.386 98.6C332.286 98.9 332.136 99.05 331.936 99.05C331.836 99.05 331.786 99 331.786 98.9H331.486C330.886 98.9 330.536 99.1 330.436 99.5ZM331.186 77.3L331.786 77C332.286 76.5 332.786 75.9 333.286 75.2C333.886 74.5 334.486 73.75 335.086 72.95C335.086 72.95 335.236 72.8 335.536 72.5C335.836 72.2 335.986 71.9 335.986 71.6C336.486 71.1 337.036 70.6 337.636 70.1C338.236 69.5 338.936 68.85 339.736 68.15L340.336 67.1C340.436 67 340.586 66.9 340.786 66.8C340.986 66.7 341.186 66.55 341.386 66.35L344.686 63.05C344.786 62.95 344.836 62.75 344.836 62.45C345.536 61.95 345.936 61.5 346.036 61.1C346.236 61 346.586 60.7 347.086 60.2C347.586 59.7 348.186 59.05 348.886 58.25C349.286 58.25 349.786 57.8 350.386 56.9C350.586 56.8 350.936 56.5 351.436 56C352.736 53.8 353.386 52.65 353.386 52.55H353.836L356.086 50.15C356.486 49.75 356.686 49.2 356.686 48.5C358.386 47.7 359.336 46.7 359.536 45.5L360.586 44.75C360.586 44.45 360.936 43.95 361.636 43.25C361.636 43.25 361.686 43.25 361.786 43.25C361.886 43.25 361.986 43.2 362.086 43.1C362.286 42.8 362.486 42.45 362.686 42.05C362.986 41.55 363.336 40.95 363.736 40.25H364.486L364.936 39.2C365.136 38.8 365.436 38.4 365.836 38C366.336 37.5 366.836 36.9 367.336 36.2V35.6C367.636 35.6 367.986 35.45 368.386 35.15C368.486 34.95 368.586 34.75 368.686 34.55C368.786 34.25 368.936 33.9 369.136 33.5C369.536 32.8 370.036 32 370.636 31.1C371.336 30.2 372.086 29.15 372.886 27.95C372.886 27.25 373.286 26.4 374.086 25.4V24.95C374.186 24.85 374.136 24.8 373.936 24.8C373.736 24.8 373.536 24.9 373.336 25.1C370.836 27 368.786 28.6 367.186 29.9C365.686 31.2 364.686 32.15 364.186 32.75C363.886 32.85 363.586 33.15 363.286 33.65C363.286 33.65 363.136 33.8 362.836 34.1C362.636 34.4 362.286 34.8 361.786 35.3C361.486 35.7 361.036 35.85 360.436 35.75C360.336 36.55 359.736 37.35 358.636 38.15C357.636 38.85 357.086 39.5 356.986 40.1C355.986 40.6 354.736 41.8 353.236 43.7C351.936 45 350.136 47.1 347.836 50C347.236 50.3 346.486 51.25 345.586 52.85L344.536 53.75C344.536 54.15 344.086 54.6 343.186 55.1C343.186 55.4 342.986 55.75 342.586 56.15C342.186 56.55 341.986 56.85 341.986 57.05C341.686 57.45 341.186 57.95 340.486 58.55C340.486 58.55 340.386 58.85 340.186 59.45C339.986 59.85 339.736 60.2 339.436 60.5C339.136 60.7 338.886 60.9 338.686 61.1C338.586 61.5 338.536 61.8 338.536 62C338.536 62.2 338.536 62.35 338.536 62.45C338.036 62.95 337.486 63.65 336.886 64.55C336.386 65.45 335.836 66.45 335.236 67.55C334.736 67.55 334.336 68 334.036 68.9C333.736 69.8 333.486 70.3 333.286 70.4C333.086 70.6 332.836 70.75 332.536 70.85V71.45L333.136 71.9C332.736 72.8 332.236 73.3 331.636 73.4C331.636 73.8 331.536 74.2 331.336 74.6C331.336 74.7 331.436 74.75 331.636 74.75C331.436 75.25 331.286 75.55 331.186 75.65C331.086 75.75 330.936 75.9 330.736 76.1L331.186 77.3ZM368.236 74.9C368.236 74.5 368.636 73.9 369.436 73.1H369.586C369.586 73.2 369.636 73.25 369.736 73.25C369.836 73.25 370.186 72.85 370.786 72.05C371.386 71.15 371.736 70.7 371.836 70.7C372.136 70.7 372.486 70.85 372.886 71.15V72.5C372.686 72.6 372.436 72.85 372.136 73.25C371.836 73.55 371.636 73.7 371.536 73.7C371.236 73.7 370.936 73.55 370.636 73.25C370.536 73.25 370.336 73.55 370.036 74.15L368.686 74.9H368.236ZM362.236 80.75C362.236 80.55 362.036 80.4 361.636 80.3C362.336 79.9 363.386 78.9 364.786 77.3C365.186 77.4 365.536 77.1 365.836 76.4C366.136 75.7 366.486 75.3 366.886 75.2H367.636L367.936 75.5C367.836 75.8 367.686 76.15 367.486 76.55C367.286 76.95 367.036 77.4 366.736 77.9H366.586C366.286 77.9 365.936 78.1 365.536 78.5C365.236 78.8 365.086 79.05 365.086 79.25C365.086 79.35 364.886 79.5 364.486 79.7C364.086 79.8 363.536 80.15 362.836 80.75H362.236ZM360.436 82.25V80.9C360.636 81 360.786 81.1 360.886 81.2C360.986 81.2 361.036 81.2 361.036 81.2C361.236 81.2 361.336 81.1 361.336 80.9C361.536 81.1 361.836 81.2 362.236 81.2C361.636 81.9 361.036 82.25 360.436 82.25Z" fill="white"/>
</svg>
